<svg id="Layer_1" data-name="Layer 1" xmlns="http://www.w3.org/2000/svg" viewBox="0 0 146 146"><defs><style>.cls-1{fill:#999;}.cls-2{fill:none;stroke:#999;stroke-miterlimit:10;stroke-width:5px;}</style></defs><title>Artboard 1</title><path class="cls-1" d="M33.67,30.48c0,2.61,0,5.25,0,7.89.07,4.69,3.22,8,7.54,7.89s7.19-3.3,7.27-7.87c0-2.55,0-5.11,0-7.87h8c0,2.63,0,5.25,0,7.88.07,4.57,3.07,7.79,7.27,7.86s7.46-3.2,7.53-7.9c0-2.55,0-5.11,0-7.85h8c0,2.65,0,5.28,0,7.91.07,4.56,3.09,7.78,7.29,7.84S94,43,94.08,38.33c0-2.55,0-5.11,0-7.63,5.34-1,11,3.34,11.19,9.47.41,11.55.12,23.12.12,34.78l-5.55-.29V57.83H28c0,.81,0,1.71,0,2.61q0,20.09,0,40.17c0,5.59,2.78,8.35,8.4,8.35H70.56c5.38,0,5.38,0,7.58,5.47a20.55,20.55,0,0,1-2.12.22q-20.8,0-41.6,0c-7.64,0-12.15-4.6-12.15-12.25q0-30.34,0-60.68C22.3,34.82,27,30.08,33.67,30.48Z"/><path class="cls-1" d="M36,34.23c0-1.61-.1-3.23,0-4.84a5.08,5.08,0,0,1,5.08-4.78,5,5,0,0,1,5.08,4.76c.16,3.22.15,6.46,0,9.68A5,5,0,0,1,40.94,44a5.1,5.1,0,0,1-5-4.9C35.88,37.46,36,35.84,36,34.23Z"/><path class="cls-1" d="M69,34.3c0,1.52.07,3,0,4.55a5.13,5.13,0,0,1-5,5.12,5,5,0,0,1-5.15-5c-.12-3.13-.12-6.27,0-9.39A5.09,5.09,0,0,1,69,29.46c.12,1.6,0,3.22,0,4.84Z"/><path class="cls-1" d="M81.57,34.08c0-1.52-.09-3,0-4.55a5.1,5.1,0,0,1,5.23-4.92,5,5,0,0,1,5,4.9c.13,3.22.14,6.46,0,9.68A5,5,0,0,1,86.69,44a5.08,5.08,0,0,1-5.09-4.76C81.47,37.51,81.57,35.79,81.57,34.08Z"/><rect class="cls-1" x="35.93" y="62" width="9.74" height="8.56" rx="2" ry="2"/><rect class="cls-1" x="58.99" y="62" width="9.74" height="8.56" rx="2" ry="2"/><rect class="cls-1" x="47.46" y="62" width="9.74" height="8.56" rx="2" ry="2"/><rect class="cls-1" x="81.53" y="62" width="9.74" height="8.56" rx="2" ry="2"/><rect class="cls-1" x="70.53" y="62" width="9.74" height="8.56" rx="2" ry="2"/><rect class="cls-1" x="35.93" y="73.33" width="9.74" height="8.56" rx="2" ry="2"/><rect class="cls-1" x="58.99" y="73.33" width="9.74" height="8.56" rx="2" ry="2"/><rect class="cls-1" x="47.46" y="73.33" width="9.74" height="8.56" rx="2" ry="2"/><rect class="cls-1" x="70.53" y="73.33" width="9.74" height="8.56" rx="2" ry="2"/><rect class="cls-1" x="35.93" y="84.67" width="9.74" height="8.56" rx="2" ry="2"/><rect class="cls-1" x="58.99" y="84.67" width="9.74" height="8.56" rx="2" ry="2"/><rect class="cls-1" x="47.46" y="84.67" width="9.74" height="8.56" rx="2" ry="2"/><rect class="cls-1" x="35.93" y="96" width="9.74" height="8.56" rx="2" ry="2"/><rect class="cls-1" x="47.46" y="96" width="9.74" height="8.56" rx="2" ry="2"/><circle class="cls-2" cx="102.3" cy="101.1" r="21.45"/><path class="cls-1" d="M114.48,101H104V88a2,2,0,0,0-4,0v14.8a3.36,3.36,0,0,0,.2.81,1.76,1.76,0,0,0,1.49,1.37h.07l.17,0,.17,0h12.38c.78,0,1.52-1.1,1.52-1.88v-.64A1.57,1.57,0,0,0,114.48,101Z"/></svg>