<svg id="Layer_1" data-name="Layer 1" xmlns="http://www.w3.org/2000/svg" viewBox="0 0 146 146"><defs><style>.cls-1{fill:#fff;}</style></defs><title>edit-icon</title><path class="cls-1" d="M26.32,117.38a2.69,2.69,0,0,0,3.25,3.2l26.32-6.38L32.28,90.58Z"/><polygon class="cls-1" points="106.21 32 100.74 26.53 98.45 24.24 96.16 26.53 90.69 32 38.68 84.11 62.28 107.8 122.07 47.94 106.21 32"/><path class="cls-1" d="M127,66.76v55.4c0,3.06-.87,8.84-4.15,8.84H21.48C18,131,13,125.79,13,122.16V35.65C13,32.26,18.2,31,21.48,31H69L79,21H21.48C12.4,21,3,26.48,3,35.65v86.5C3,131.31,12.5,141,21.48,141H122.85C132,141,137,131.29,137,122.16V56.74Z"/><path class="cls-1" d="M131.64,38.38,140,30.07a8,8,0,0,0,0-11.37L129.46,8.17a10.45,10.45,0,0,0-14.76,0l-10.09,10L113,26.53,118.5,32,126,39.91l2.12,2,3.5-3.5"/></svg>