<svg id="Layer_1" data-name="Layer 1" xmlns="http://www.w3.org/2000/svg" viewBox="0 0 375 154"><defs><style>.cls-1,.cls-3{fill:#fff;}.cls-2{fill:#c70000;}.cls-3{font-size:25.79px;font-family:Avenir-Light, Avenir;}.cls-4{letter-spacing:0.13em;}.cls-5{letter-spacing:0.14em;}.cls-6{letter-spacing:0.14em;}.cls-7{letter-spacing:0.13em;}.cls-8{letter-spacing:0.13em;}.cls-9{letter-spacing:0.1em;}.cls-10{letter-spacing:0.14em;}</style></defs><title>logo-main</title><path class="cls-1" d="M85.32,44.58c0,7-5.33,11.55-14.09,11.55H59.56V32.64H71.11c8.89,0,14.22,4.06,14.22,11.68Zm24.63-1.14v-.25C109.95,23.51,95.48,12,73,12H34.93V57.54l24.63,42.65V75.42H71.74c22.09,0,38.21-11,38.21-32M144.2,12H119.44v88.85H144.2Z"/><path class="cls-1" d="M293.3,104.24a46.77,46.77,0,1,0-46.77-46.77,46.77,46.77,0,0,0,46.77,46.77"/><path class="cls-1" d="M159.94,12H160v88.85h24.63l-2.55-48.92Zm78.88,30.59v-.25c0-8.76-2.67-15.61-7.87-20.69C225,15.51,215.59,12,202,12H187l12.31,21.33h1.46c8.25,0,13.33,3.55,13.33,10.54v.25c0,6.47-4.82,10.54-13.2,10.54H186.8l25.49,44.67,1,1.54h25.06l-17.83-31c11-4.7,18.28-13.71,18.28-27.29"/><path class="cls-2" d="M323.1,52.39,279.81,27.14c-3.94-2.3-7.12-.46-7.1,4.1l.22,50.11c0,4.58,3.25,6.44,7.2,4.14l43-24.81c4-2.28,4-6,0-8.3"/><text class="cls-3" transform="translate(32 137.03)"><tspan class="cls-4">L</tspan><tspan class="cls-5" x="16.19" y="0">I</tspan><tspan class="cls-6" x="26.41" y="0">V</tspan><tspan class="cls-7" x="45.31" y="0">E </tspan><tspan class="cls-8" x="74.16" y="0">S</tspan><tspan class="cls-9" x="91.88" y="0">C</tspan><tspan class="cls-10" x="112.63" y="0">OR</tspan><tspan x="156.6" y="0">E WITH PIRO</tspan></text></svg>