<svg id="Layer_1" data-name="Layer 1" xmlns="http://www.w3.org/2000/svg" viewBox="0 0 375 154"><defs><style>.cls-1{fill:#fff;}.cls-2{fill:#c70000;}</style></defs><title>logo-main</title><path class="cls-1" d="M85.32,44.58c0,7-5.33,11.55-14.09,11.55H59.56V32.64H71.11c8.89,0,14.22,4.06,14.22,11.68Zm24.63-1.14v-.25C109.95,23.51,95.48,12,73,12H34.93V57.54l24.63,42.65V75.42H71.74c22.09,0,38.21-11,38.21-32M144.2,12H119.44v88.85H144.2Z"/><path class="cls-1" d="M293.3,104.24a46.77,46.77,0,1,0-46.77-46.77,46.77,46.77,0,0,0,46.77,46.77"/><path class="cls-1" d="M159.94,12H160v88.85h24.63l-2.55-48.92Zm78.88,30.59v-.25c0-8.76-2.67-15.61-7.87-20.69C225,15.51,215.59,12,202,12H187l12.31,21.33h1.46c8.25,0,13.33,3.55,13.33,10.54v.25c0,6.47-4.82,10.54-13.2,10.54H186.8l25.49,44.67,1,1.54h25.06l-17.83-31c11-4.7,18.28-13.71,18.28-27.29"/><path class="cls-2" d="M323.1,52.39,279.81,27.14c-3.94-2.3-7.12-.46-7.1,4.1l.22,50.11c0,4.58,3.25,6.44,7.2,4.14l43-24.81c4-2.28,4-6,0-8.3"/><path class="cls-1" d="M72.79,119.62h2.09V140.1H85.3V142H72.79Z"/><path class="cls-1" d="M90.33,119.62h2.09V142H90.33Z"/><path class="cls-1" d="M97.13,119.62h2.24l7.21,19.63,7.27-19.63h2.21L107.55,142h-2.09Z"/><path class="cls-1" d="M120.77,119.62h13.69v1.9h-11.6v8h10.87v1.9H122.85v8.72H135V142H120.77Z"/><path class="cls-1" d="M151.8,137.85a5.35,5.35,0,0,0,2.13,2.12,6.27,6.27,0,0,0,3,.7,6,6,0,0,0,2-.32,5,5,0,0,0,1.6-.88,4.16,4.16,0,0,0,1.07-1.37,4.08,4.08,0,0,0,.4-1.82,3.49,3.49,0,0,0-.49-1.93,3.93,3.93,0,0,0-1.31-1.25,9.66,9.66,0,0,0-1.85-.84l-2.12-.7q-1.09-.35-2.12-.79a7.11,7.11,0,0,1-1.85-1.15,5.13,5.13,0,0,1-1.31-1.79,6.38,6.38,0,0,1-.49-2.66,5.75,5.75,0,0,1,.58-2.64,5.64,5.64,0,0,1,1.58-1.93,7,7,0,0,1,2.29-1.17,9.29,9.29,0,0,1,2.72-.39,8.8,8.8,0,0,1,3.4.65,6.46,6.46,0,0,1,2.7,2.17l-1.8,1.3A5.3,5.3,0,0,0,160,121.5a5.37,5.37,0,0,0-2.51-.55,6.83,6.83,0,0,0-1.93.27,4.8,4.8,0,0,0-1.6.79,3.89,3.89,0,0,0-1.09,1.31,4,4,0,0,0-.41,1.86,3.6,3.6,0,0,0,.85,2.58,6,6,0,0,0,2.13,1.42,22.7,22.7,0,0,0,2.78.92,13.49,13.49,0,0,1,2.78,1.06,6,6,0,0,1,2.13,1.85,5.51,5.51,0,0,1,.85,3.27,6.06,6.06,0,0,1-.57,2.69,5.9,5.9,0,0,1-1.53,2,6.63,6.63,0,0,1-2.23,1.22,8.45,8.45,0,0,1-2.62.41,10.54,10.54,0,0,1-4.08-.77,7.46,7.46,0,0,1-3.19-2.61Z"/><path class="cls-1" d="M188.94,138.49a9.49,9.49,0,0,1-3.73,3.13,11.09,11.09,0,0,1-4.58.95,12.33,12.33,0,0,1-4.69-.87,10.58,10.58,0,0,1-3.65-2.43,11.17,11.17,0,0,1-2.37-3.73,13.46,13.46,0,0,1,0-9.43,11.21,11.21,0,0,1,2.37-3.71,10.76,10.76,0,0,1,3.65-2.45,12.14,12.14,0,0,1,4.69-.88,11.15,11.15,0,0,1,4.25.81,8.45,8.45,0,0,1,3.46,2.7L186.63,124a6.19,6.19,0,0,0-2.67-2.31,8.1,8.1,0,0,0-3.33-.73,9.83,9.83,0,0,0-3.94.76,8.77,8.77,0,0,0-3,2.09,9.25,9.25,0,0,0-1.9,3.13,11.72,11.72,0,0,0,0,7.78,9.23,9.23,0,0,0,1.9,3.13,8.77,8.77,0,0,0,3,2.09,9.81,9.81,0,0,0,3.94.76,8.22,8.22,0,0,0,3.56-.84,8.57,8.57,0,0,0,1.66-1.07,6.89,6.89,0,0,0,1.39-1.56Z"/><path class="cls-1" d="M193,130.81a12.64,12.64,0,0,1,.85-4.71,11.21,11.21,0,0,1,2.37-3.71,10.76,10.76,0,0,1,3.65-2.45,12.89,12.89,0,0,1,9.39,0,10.76,10.76,0,0,1,3.65,2.45,11.22,11.22,0,0,1,2.37,3.71,13.46,13.46,0,0,1,0,9.43,11.18,11.18,0,0,1-2.37,3.73,10.58,10.58,0,0,1-3.65,2.43,13.11,13.11,0,0,1-9.39,0,10.58,10.58,0,0,1-3.65-2.43,11.17,11.17,0,0,1-2.37-3.73A12.77,12.77,0,0,1,193,130.81Zm2.09,0a11.19,11.19,0,0,0,.66,3.89,9.25,9.25,0,0,0,1.9,3.13,8.79,8.79,0,0,0,3,2.09,10.58,10.58,0,0,0,7.87,0,8.78,8.78,0,0,0,3-2.09,9.23,9.23,0,0,0,1.9-3.13,11.71,11.71,0,0,0,0-7.78,9.25,9.25,0,0,0-1.9-3.13,8.78,8.78,0,0,0-3-2.09,10.6,10.6,0,0,0-7.87,0,8.79,8.79,0,0,0-3,2.09,9.27,9.27,0,0,0-1.9,3.13A11.19,11.19,0,0,0,195.13,130.81Z"/><path class="cls-1" d="M222.6,119.62h5.88l1.2,0a12.21,12.21,0,0,1,1.64.19,10.12,10.12,0,0,1,1.8.51,5.1,5.1,0,0,1,1.64,1A5.26,5.26,0,0,1,236,123a5.79,5.79,0,0,1,.47,2.46,5.64,5.64,0,0,1-.55,2.66,5.14,5.14,0,0,1-1.39,1.69,5.82,5.82,0,0,1-1.85,1,11.93,11.93,0,0,1-1.93.44L237.23,142h-2.37l-6.29-10.62h-3.89V142H222.6Zm2.09,9.86h4.42a7.28,7.28,0,0,0,2.67-.41,4.42,4.42,0,0,0,1.6-1,3.19,3.19,0,0,0,.77-1.29,4,4,0,0,0,0-2.53,3.2,3.2,0,0,0-.77-1.29,4.45,4.45,0,0,0-1.6-1,7.3,7.3,0,0,0-2.67-.41h-4.42Z"/><path class="cls-1" d="M243.08,119.62h2.09V142h-2.09Z"/><path class="cls-1" d="M253,119.62h2.69l13.62,19.6h.06v-19.6h2.09V142H268.8l-13.62-19.6h-.06V142H253Z"/><path class="cls-1" d="M297.82,140.54a14.49,14.49,0,0,1-4.06,1.56,20,20,0,0,1-4.28.46,12.34,12.34,0,0,1-4.69-.87,10.58,10.58,0,0,1-3.65-2.43,11.17,11.17,0,0,1-2.37-3.73,13.46,13.46,0,0,1,0-9.43,11.21,11.21,0,0,1,2.37-3.71,10.76,10.76,0,0,1,3.65-2.45,12.14,12.14,0,0,1,4.69-.88,10.84,10.84,0,0,1,8.06,3.1L296,123.73a6.55,6.55,0,0,0-1.25-1.12,8.54,8.54,0,0,0-1.61-.88,10.46,10.46,0,0,0-1.82-.57,8.8,8.8,0,0,0-1.86-.21,9.83,9.83,0,0,0-3.93.76,8.77,8.77,0,0,0-3,2.09,9.25,9.25,0,0,0-1.9,3.13,11.73,11.73,0,0,0,0,7.78,9.23,9.23,0,0,0,1.9,3.13,8.77,8.77,0,0,0,3,2.09,9.81,9.81,0,0,0,3.93.76,19,19,0,0,0,3.38-.29,8.69,8.69,0,0,0,2.88-1v-7.52h-5.37v-1.9h7.46Z"/></svg>