<svg id="Layer_1" data-name="Layer 1" xmlns="http://www.w3.org/2000/svg" viewBox="0 0 375 154"><defs><style>.cls-1{fill:#fff;}.cls-2{fill:#c70000;}</style></defs><title>logo-nav</title><path class="cls-1" d="M75.88,62.48c0,7.62-5.82,12.61-15.38,12.61H47.75V49.45H60.36c9.7,0,15.52,4.44,15.52,12.75Zm26.88-1.25V61c0-21.48-15.8-34.09-40.33-34.09H20.87V76.63l26.88,46.57v-27h13.3c24.11,0,41.71-12.06,41.71-34.92m37.39-34.37h-27v97h27Z"/><path class="cls-1" d="M302.94,127.62a51.06,51.06,0,1,0-51.06-51.06,51.06,51.06,0,0,0,51.06,51.06"/><path class="cls-1" d="M157.34,26.86h.06v97h26.88l-2.79-53.4Zm86.12,33.4V60c0-9.56-2.91-17-8.59-22.59-6.51-6.65-16.77-10.53-31.6-10.53H186.85L200.3,50.15h1.59c9,0,14.55,3.88,14.55,11.5v.28c0,7.07-5.27,11.5-14.41,11.5H186.66l27.83,48.77,1.12,1.68H243L223.51,90.06c12.06-5.13,20-15,20-29.79"/><path class="cls-2" d="M335.47,71,288.21,43.44c-4.3-2.52-7.78-.51-7.76,4.47l.24,54.71c0,5,3.55,7,7.86,4.52l46.89-27.08c4.32-2.49,4.34-6.54,0-9.06"/></svg>